<?xml version="1.0" encoding="UTF-8" standalone="no"?>
<!-- Created with Inkscape (http://www.inkscape.org/) -->

<svg
   width="210mm"
   height="297mm"
   viewBox="0 0 210 297"
   version="1.1"
   id="svg1"
   xml:space="preserve"
   inkscape:version="1.3.2 (091e20e, 2023-11-25, custom)"
   sodipodi:docname="La Ventanita Logo.svg"
   xmlns:inkscape="http://www.inkscape.org/namespaces/inkscape"
   xmlns:sodipodi="http://sodipodi.sourceforge.net/DTD/sodipodi-0.dtd"
   xmlns="http://www.w3.org/2000/svg"
   xmlns:svg="http://www.w3.org/2000/svg"><sodipodi:namedview
     id="namedview1"
     pagecolor="#505050"
     bordercolor="#ffffff"
     borderopacity="1"
     inkscape:showpageshadow="0"
     inkscape:pageopacity="0"
     inkscape:pagecheckerboard="1"
     inkscape:deskcolor="#505050"
     inkscape:document-units="mm"
     inkscape:zoom="0.44631734"
     inkscape:cx="473.87807"
     inkscape:cy="565.74096"
     inkscape:window-width="1366"
     inkscape:window-height="697"
     inkscape:window-x="-8"
     inkscape:window-y="-8"
     inkscape:window-maximized="1"
     inkscape:current-layer="layer1" /><defs
     id="defs1" /><g
     inkscape:label="Layer 1"
     inkscape:groupmode="layer"
     id="layer1"><g
       style="fill:#ffffff"
       id="g1"
       transform="matrix(3.5875706,0,0,3.5875706,-2.9800388,18.954093)"><g
         id="g12"
         style="fill:#ffffff">
	<path
   d="M 53.5,53 V 24 C 53.5,10.767 42.733,0 29.5,0 16.267,0 5.5,10.767 5.5,24 v 29 h -2 v 6 h 52 V 53 Z M 7.5,24 c 0,-12.131 9.869,-22 22,-22 12.131,0 22,9.869 22,22 v 29 h -44 z m 46,33 h -48 v -2 h 48 z"
   id="path1"
   style="fill:#ffffff" />
	<path
   d="M 29.5,3 C 18.596,3 9.612,11.356 8.601,22 H 8.5 v 2 12 2 14 h 20 2 20 V 38 36 24 22 H 50.399 C 49.388,11.356 40.404,3 29.5,3 Z M 48.393,22 H 31.914 L 43.126,10.788 c 2.882,2.972 4.81,6.873 5.267,11.212 z M 41.664,9.422 29.5,21.586 17.336,9.422 C 20.634,6.665 24.875,5 29.5,5 34.125,5 38.366,6.665 41.664,9.422 Z M 15.874,10.788 27.086,22 H 10.607 c 0.457,-4.339 2.385,-8.24 5.267,-11.212 z M 10.5,24 h 18 v 12 h -18 z m 0,26 V 38 h 18 v 12 z m 38,0 h -18 V 38 h 18 z M 30.5,36 V 24 h 18 v 12 z"
   id="path2"
   style="fill:#ffffff" />
	<path
   d="M 27.793,17.707 C 27.988,17.902 28.244,18 28.5,18 c 0.256,0 0.512,-0.098 0.707,-0.293 l 2,-2 c 0.391,-0.391 0.391,-1.023 0,-1.414 -0.391,-0.391 -1.023,-0.391 -1.414,0 l -2,2 c -0.391,0.391 -0.391,1.023 0,1.414 z"
   id="path3"
   style="fill:#ffffff" />
	<circle
   cx="32.5"
   cy="13"
   r="1"
   id="circle3"
   style="fill:#ffffff" />
	<circle
   cx="28.5"
   cy="13"
   r="1"
   id="circle4"
   style="fill:#ffffff" />
	<path
   d="m 13.793,27.293 -2,2 c -0.391,0.391 -0.391,1.023 0,1.414 0.195,0.195 0.451,0.293 0.707,0.293 0.256,0 0.512,-0.098 0.707,-0.293 l 2,-2 c 0.391,-0.391 0.391,-1.023 0,-1.414 -0.391,-0.391 -1.023,-0.391 -1.414,0 z"
   id="path4"
   style="fill:#ffffff" />
	<circle
   cx="16.5"
   cy="26"
   r="1"
   id="circle5"
   style="fill:#ffffff" />
	<circle
   cx="12.5"
   cy="26"
   r="1"
   id="circle6"
   style="fill:#ffffff" />
	<path
   d="m 23.793,45.293 -2,2 c -0.391,0.391 -0.391,1.023 0,1.414 0.195,0.195 0.451,0.293 0.707,0.293 0.256,0 0.512,-0.098 0.707,-0.293 l 2,-2 c 0.391,-0.391 0.391,-1.023 0,-1.414 -0.391,-0.391 -1.023,-0.391 -1.414,0 z"
   id="path6"
   style="fill:#ffffff" />
	<circle
   cx="26.5"
   cy="44"
   r="1"
   id="circle7"
   style="fill:#ffffff" />
	<circle
   cx="22.5"
   cy="44"
   r="1"
   id="circle8"
   style="fill:#ffffff" />
	<path
   d="m 42.5,49 c 0.256,0 0.512,-0.098 0.707,-0.293 l 2,-2 c 0.391,-0.391 0.391,-1.023 0,-1.414 -0.391,-0.391 -1.023,-0.391 -1.414,0 l -2,2 c -0.391,0.391 -0.391,1.023 0,1.414 C 41.988,48.902 42.244,49 42.5,49 Z"
   id="path8"
   style="fill:#ffffff" />
	<circle
   cx="46.5"
   cy="44"
   r="1"
   id="circle9"
   style="fill:#ffffff" />
	<circle
   cx="42.5"
   cy="44"
   r="1"
   id="circle10"
   style="fill:#ffffff" />
	<path
   d="m 43.793,27.293 -2,2 c -0.391,0.391 -0.391,1.023 0,1.414 0.195,0.195 0.451,0.293 0.707,0.293 0.256,0 0.512,-0.098 0.707,-0.293 l 2,-2 c 0.391,-0.391 0.391,-1.023 0,-1.414 -0.391,-0.391 -1.023,-0.391 -1.414,0 z"
   id="path10"
   style="fill:#ffffff" />
	<circle
   cx="46.5"
   cy="26"
   r="1"
   id="circle11"
   style="fill:#ffffff" />
	<circle
   cx="42.5"
   cy="26"
   r="1"
   id="circle12"
   style="fill:#ffffff" />
</g></g></g></svg>
